{"title":"Cheetah The Power Of One 2013 BDRip Xvid (IcTv) - Hindi","uid":8369723,"size":725828464,"categoryP":"video","categoryS":"movies","magnet":"?xt=urn:btih:fbdb65b03e40d0bca9072e3fa183bdef5141af7d&amp;dn=Cheetah+The+Power+Of+One+2013+BDRip+Xvid+%28IcTv%29+-+Hindi&amp;tr=udp%3A%2F%2Ftracker.openbittorrent.com%3A80&amp;tr=udp%3A%2F%2Fopen.demonii.com%3A1337&amp;tr=udp%3A%2F%2Ftracker.coppersurfer.tk%3A6969&amp;tr=udp%3A%2F%2Fexodus.desync.com%3A6969","seeders":0,"leechers":1,"uploader":"SJonam","files":1,"time":1365876273,"description":" &lt;a href=&quot;http://desibbrg.org/images/66952052392581364616.gif&quot; rel=&quot;nofollow&quot; target=&quot;_NEW&quot;&gt;http://desibbrg.org/images/66952052392581364616.gif&lt;/a&gt; &lt;a href=&quot;\nhttp://desibbrg.org/images/05506193061629995555.jpg&quot; rel=&quot;nofollow&quot; target=&quot;_NEW&quot;&gt;\nhttp://desibbrg.org/images/05506193061629995555.jpg&lt;/a&gt; &lt;a href=&quot;\nhttp://desibbrg.org/images/97968130592812299885.jpg&quot; rel=&quot;nofollow&quot; target=&quot;_NEW&quot;&gt;\nhttp://desibbrg.org/images/97968130592812299885.jpg&lt;/a&gt; &lt;a href=&quot;\nhttp://desibbrg.org/images/27197640711464520497.jpg&quot; rel=&quot;nofollow&quot; target=&quot;_NEW&quot;&gt;\nhttp://desibbrg.org/images/27197640711464520497.jpg&lt;/a&gt; &lt;a href=&quot;\nhttp://desibbrg.org/images/51642053780822369322.jpg&quot; rel=&quot;nofollow&quot; target=&quot;_NEW&quot;&gt;\nhttp://desibbrg.org/images/51642053780822369322.jpg&lt;/a&gt;\n\nMedia Info - \nVideo\nID : 0\nFormat : MPEG-4 Visual\nFormat profile : Advanced Simple@L5\nFormat settings, BVOP : 2\nFormat settings, QPel : Yes\nFormat settings, GMC : No warppoints\nFormat settings, Matrix : Default (H.263)\nCodec ID : XVID\nCodec ID/Hint : XviD\nDuration : 2h 24mn\nBit rate : 567 Kbps\nWidth : 640 pixels\nHeight : 272 pixels\nDisplay aspect ratio : 2.35:1\nFrame rate : 25.000 fps\nColor space : YUV\nChroma subsampling : 4:2:0\nBit depth : 8 bits\nScan type : Progressive\nCompression mode : Lossy\nBits/(Pixel*Frame) : 0.130\nStream size : 587 MiB (85%)\nWriting library : XviD 1.2.1 (UTC 2008-12-04)\n\nAudio\nID : 1\nFormat : MPEG Audio\nFormat version : Version 1\nFormat profile : Layer 3\nMode : Joint stereo\nMode extension : MS Stereo\nCodec ID : 55\nCodec ID/Hint : MP3\nDuration : 2h 24mn\nBit rate mode : Constant\nBit rate : 96.0 Kbps\nChannel(s) : 2 channels\nSampling rate : 32.0 KHz\nCompression mode : Lossy\nStream size : 99.3 MiB (14%)\nAlignment : Aligned on interleaves\nInterleave, duration : 160 ms (4.00 video frames)\nInterleave, preload duration : 216 ms\nTitle : CHEETAH THE POWER\nWriting library : LAME3.99r\nEncoding settings : -m j -V 4 -q 2 -lowpass 15.1 -b 96\n\nRipper : Master Mind\n\nSeeding 24x7... Extreme Seeding...\n\n\nEnjoy!\n","torrent":{"xt":"urn:btih:fbdb65b03e40d0bca9072e3fa183bdef5141af7d","amp;dn":"Cheetah+The+Power+Of+One+2013+BDRip+Xvid+%28IcTv%29+-+Hindi","amp;tr":["udp%3A%2F%2Ftracker.openbittorrent.com%3A80","udp%3A%2F%2Fopen.demonii.com%3A1337","udp%3A%2F%2Ftracker.coppersurfer.tk%3A6969","udp%3A%2F%2Fexodus.desync.com%3A6969"],"infoHash":"fbdb65b03e40d0bca9072e3fa183bdef5141af7d","infoHashBuffer":{"type":"Buffer","data":[251,219,101,176,62,64,208,188,169,7,46,63,161,131,189,239,81,65,175,125]},"announce":[],"urlList":[]}}